<?xml version="1.0" encoding="UTF-8" standalone="no"?>
<svg
   xmlns:dc="http://purl.org/dc/elements/1.1/"
   xmlns:cc="http://creativecommons.org/ns#"
   xmlns:rdf="http://www.w3.org/1999/02/22-rdf-syntax-ns#"
   xmlns:svg="http://www.w3.org/2000/svg"
   xmlns="http://www.w3.org/2000/svg"
   xmlns:sodipodi="http://sodipodi.sourceforge.net/DTD/sodipodi-0.dtd"
   xmlns:inkscape="http://www.inkscape.org/namespaces/inkscape"
   inkscape:version="1.0rc1 (09960d6, 2020-04-09)"
   sodipodi:docname="lockup.svg"
   version="1.1"
   viewBox="0 0 727.63 446.4"
   data-name="Layer 1"
   id="Layer_1">
  <metadata
     id="metadata31">
    <rdf:RDF>
      <cc:Work
         rdf:about="">
        <dc:format>image/svg+xml</dc:format>
        <dc:type
           rdf:resource="http://purl.org/dc/dcmitype/StillImage" />
      </cc:Work>
    </rdf:RDF>
  </metadata>
  <sodipodi:namedview
     inkscape:current-layer="Layer_1"
     inkscape:window-maximized="0"
     inkscape:window-y="0"
     inkscape:window-x="0"
     inkscape:cy="223.2"
     inkscape:cx="363.815"
     inkscape:zoom="1.4471641"
     showgrid="false"
     id="namedview29"
     inkscape:window-height="1440"
     inkscape:window-width="2560"
     inkscape:pageshadow="2"
     inkscape:pageopacity="0"
     guidetolerance="10"
     gridtolerance="10"
     objecttolerance="10"
     borderopacity="1"
     bordercolor="#666666"
     pagecolor="#ffffff" />
  <defs
     id="defs12">
    <style
       id="style10">.cls-1{fill:#231f20;}.cls-2{fill:#f16667;}.cls-3{fill:#fff;}</style>
  </defs>
  <path
     id="path16"
     d="M290.39,198.84c0-6.12-1.8-11-6.84-11-2.34,0-5.16,1.56-7,3.78h-.12l2.7-22.5a121.83,121.83,0,0,0,13.26.84c4.68,0,7.8-.24,10.14-2.58h.12c0,8.28-2.28,13.86-10.8,13.86a40.75,40.75,0,0,1-12.36-2.4l-1.14,9.72c2-2.1,5.58-4,10.68-4,8.52,0,14.7,4.8,14.7,12.72,0,10.26-8.22,15.06-17.46,15.06-7.8,0-14.88-3.24-14.88-10.32,0-5,3.72-7.92,8.34-7.92,3.72,0,5.94,1.62,6.78,3.18h-.12a2.72,2.72,0,0,0-1-.18c-2.16-.06-3.6,2.52-3.6,6.48,0,4.32,1.56,7.74,4.26,7.74C289.49,211.32,290.39,205.5,290.39,198.84Z"
     class="cls-2" />
  <path
     id="path18"
     d="M324.77,212.34c-11.22,0-19.08-8.58-19.08-21.6s7.86-21.6,19.08-21.6,19.08,8.52,19.08,21.6S336,212.34,324.77,212.34Zm0-42.18c-3.72,0-4.26,5-4.26,20.58s.54,20.52,4.26,20.52,4.32-5,4.32-20.52S328.49,170.16,324.77,170.16Z"
     class="cls-2" />
  <path
     id="path20"
     d="M402.13,198.84c0-6.12-1.8-11-6.84-11-2.34,0-5.16,1.56-7,3.78h-.12l2.7-22.5a121.83,121.83,0,0,0,13.26.84c4.68,0,7.8-.24,10.14-2.58h.12c0,8.28-2.28,13.86-10.8,13.86a40.75,40.75,0,0,1-12.36-2.4l-1.14,9.72c2-2.1,5.58-4,10.68-4,8.52,0,14.7,4.8,14.7,12.72,0,10.26-8.22,15.06-17.46,15.06-7.8,0-14.88-3.24-14.88-10.32,0-5,3.72-7.92,8.34-7.92,3.72,0,5.94,1.62,6.78,3.18h-.12a2.72,2.72,0,0,0-1-.18c-2.16-.06-3.6,2.52-3.6,6.48,0,4.32,1.56,7.74,4.26,7.74C401.23,211.32,402.13,205.5,402.13,198.84Z"
     class="cls-2" />
  <path
     id="path22"
     d="M436.51,212.34c-11.22,0-19.08-8.58-19.08-21.6s7.86-21.6,19.08-21.6,19.08,8.52,19.08,21.6S447.73,212.34,436.51,212.34Zm0-42.18c-3.72,0-4.26,5-4.26,20.58s.54,20.52,4.26,20.52,4.32-5,4.32-20.52S440.23,170.16,436.51,170.16Z"
     class="cls-2" />
  <polygon
     id="polygon24"
     points="377.85 207.27 353.11 174.87 350.41 174.87 375.23 207.27 377.85 207.27"
     class="cls-3" />
  <polygon
     id="polygon26"
     points="374.52 174.87 349.78 207.27 352.4 207.27 377.22 174.87 374.52 174.87"
     class="cls-3" />
</svg>
