<?xml version="1.0" encoding="UTF-8" standalone="no"?>
<svg
   xmlns:dc="http://purl.org/dc/elements/1.1/"
   xmlns:cc="http://creativecommons.org/ns#"
   xmlns:rdf="http://www.w3.org/1999/02/22-rdf-syntax-ns#"
   xmlns:svg="http://www.w3.org/2000/svg"
   xmlns="http://www.w3.org/2000/svg"
   xmlns:sodipodi="http://sodipodi.sourceforge.net/DTD/sodipodi-0.dtd"
   xmlns:inkscape="http://www.inkscape.org/namespaces/inkscape"
   height="44.959999"
   width="184.2"
   inkscape:version="1.0rc1 (09960d6, 2020-04-09)"
   sodipodi:docname="lockup_resized.svg"
   version="1.1"
   viewBox="0 0 184.2 44.96"
   data-name="Layer 1"
   id="Layer_1">
  <metadata
     id="metadata31">
    <rdf:RDF>
      <cc:Work
         rdf:about="">
        <dc:format>image/svg+xml</dc:format>
        <dc:type
           rdf:resource="http://purl.org/dc/dcmitype/StillImage" />
        <dc:title></dc:title>
      </cc:Work>
    </rdf:RDF>
  </metadata>
  <sodipodi:namedview
     fit-margin-bottom="0"
     fit-margin-right="0"
     fit-margin-left="0"
     fit-margin-top="0"
     inkscape:current-layer="Layer_1"
     inkscape:window-maximized="0"
     inkscape:window-y="0"
     inkscape:window-x="0"
     inkscape:cy="55.82"
     inkscape:cx="92.425"
     inkscape:zoom="1.4471641"
     showgrid="false"
     id="namedview29"
     inkscape:window-height="1050"
     inkscape:window-width="1680"
     inkscape:pageshadow="2"
     inkscape:pageopacity="0"
     guidetolerance="10"
     gridtolerance="10"
     objecttolerance="10"
     borderopacity="1"
     bordercolor="#666666"
     pagecolor="#ffffff" />
  <defs
     id="defs12">
    <style
       id="style10">.cls-1{fill:#231f20;}.cls-2{fill:#f16667;}.cls-3{fill:#fff;}</style>
  </defs>
  <path
     inkscape:connector-curvature="0"
     id="path16"
     d="m 19,31.46 c 0,-6.12 -1.8,-11 -6.84,-11 -2.34,0 -5.16,1.56 -7,3.78 H 5.04 L 7.74,1.74 A 121.83,121.83 0 0 0 21,2.58 c 4.68,0 7.8,-0.24 10.14,-2.58 h 0.12 c 0,8.28 -2.28,13.86 -10.8,13.86 A 40.75,40.75 0 0 1 8.1,11.46 l -1.14,9.72 c 2,-2.1 5.58,-4 10.68,-4 8.52,0 14.7,4.8 14.7,12.72 0,10.26 -8.22,15.06 -17.46,15.06 C 7.08,44.96 0,41.72 0,34.64 c 0,-5 3.72,-7.92 8.34,-7.92 3.72,0 5.94,1.62 6.78,3.18 H 15 a 2.72,2.72 0 0 0 -1,-0.18 c -2.16,-0.06 -3.6,2.52 -3.6,6.48 0,4.32 1.56,7.74 4.26,7.74 3.44,0 4.34,-5.82 4.34,-12.48 z"
     class="cls-2" />
  <path
     inkscape:connector-curvature="0"
     id="path18"
     d="m 53.38,44.96 c -11.22,0 -19.08,-8.58 -19.08,-21.6 0,-13.02 7.86,-21.6 19.08,-21.6 11.22,0 19.08,8.52 19.08,21.6 0,13.08 -7.85,21.6 -19.08,21.6 z m 0,-42.18 c -3.72,0 -4.26,5 -4.26,20.58 0,15.58 0.54,20.52 4.26,20.52 3.72,0 4.32,-5 4.32,-20.52 C 57.7,7.84 57.1,2.78 53.38,2.78 Z"
     class="cls-2" />
  <path
     inkscape:connector-curvature="0"
     id="path20"
     d="m 130.74,31.46 c 0,-6.12 -1.8,-11 -6.84,-11 -2.34,0 -5.16,1.56 -7,3.78 h -0.12 l 2.7,-22.5 a 121.83,121.83 0 0 0 13.26,0.84 c 4.68,0 7.8,-0.24 10.14,-2.58 H 143 c 0,8.28 -2.28,13.86 -10.8,13.86 a 40.75,40.75 0 0 1 -12.36,-2.4 l -1.14,9.72 c 2,-2.1 5.58,-4 10.68,-4 8.52,0 14.7,4.8 14.7,12.72 0,10.26 -8.22,15.06 -17.46,15.06 -7.8,0 -14.88,-3.24 -14.88,-10.32 0,-5 3.72,-7.92 8.34,-7.92 3.72,0 5.94,1.62 6.78,3.18 h -0.12 a 2.72,2.72 0 0 0 -1,-0.18 c -2.16,-0.06 -3.6,2.52 -3.6,6.48 0,4.32 1.56,7.74 4.26,7.74 3.44,0 4.34,-5.82 4.34,-12.48 z"
     class="cls-2" />
  <path
     inkscape:connector-curvature="0"
     id="path22"
     d="m 165.12,44.96 c -11.22,0 -19.08,-8.58 -19.08,-21.6 0,-13.02 7.86,-21.6 19.08,-21.6 11.22,0 19.08,8.52 19.08,21.6 0,13.08 -7.86,21.6 -19.08,21.6 z m 0,-42.18 c -3.72,0 -4.26,5 -4.26,20.58 0,15.58 0.54,20.52 4.26,20.52 3.72,0 4.32,-5 4.32,-20.52 0,-15.52 -0.6,-20.58 -4.32,-20.58 z"
     class="cls-2" />
  <polygon
     transform="translate(-271.39,-167.38)"
     id="polygon24"
     points="350.41,174.87 375.23,207.27 377.85,207.27 353.11,174.87 "
     class="cls-3" />
  <polygon
     transform="translate(-271.39,-167.38)"
     id="polygon26"
     points="352.4,207.27 377.22,174.87 374.52,174.87 349.78,207.27 "
     class="cls-3" />
</svg>
